<mxfile host="app.diagrams.net" modified="2023-04-05T18:41:29.110Z" agent="Mozilla/5.0 (Macintosh; Intel Mac OS X 10_15_7) AppleWebKit/537.36 (KHTML, like Gecko) Chrome/111.0.0.0 Safari/537.36" etag="6aB8-qgTITwmqcRMZlZN" version="21.1.4" type="device">
  <diagram name="Seite-1" id="YmIhbkKCinAWM5nXsfyk">
    <mxGraphModel dx="1509" dy="784" grid="1" gridSize="10" guides="1" tooltips="1" connect="1" arrows="1" fold="1" page="1" pageScale="1" pageWidth="827" pageHeight="1169" math="0" shadow="0">
      <root>
        <mxCell id="0" />
        <mxCell id="1" parent="0" />
        <mxCell id="fDH5sGSKuXNsmmo5VWAY-110" value="" style="rounded=1;whiteSpace=wrap;html=1;dashed=1;dashPattern=8 8;fontSize=16;fillColor=none;arcSize=17;" parent="1" vertex="1">
          <mxGeometry x="240.02" y="580" width="480" height="460" as="geometry" />
        </mxCell>
        <mxCell id="2zAOHkta_ptsl9l5DQPk-26" value="" style="rounded=0;whiteSpace=wrap;html=1;fillColor=none;dashed=1;dashPattern=8 8;" parent="1" vertex="1">
          <mxGeometry x="270" y="620" width="420" height="185.75" as="geometry" />
        </mxCell>
        <mxCell id="2zAOHkta_ptsl9l5DQPk-39" value="" style="rounded=0;whiteSpace=wrap;html=1;fillColor=none;dashed=1;dashPattern=8 8;" parent="1" vertex="1">
          <mxGeometry x="270.01" y="817" width="420" height="185.75" as="geometry" />
        </mxCell>
        <mxCell id="L-rKxTVqysfB7Mhh6beJ-1" style="edgeStyle=orthogonalEdgeStyle;rounded=0;orthogonalLoop=1;jettySize=auto;html=1;" edge="1" parent="1" source="fDH5sGSKuXNsmmo5VWAY-17">
          <mxGeometry relative="1" as="geometry">
            <mxPoint x="240" y="810" as="targetPoint" />
          </mxGeometry>
        </mxCell>
        <mxCell id="fDH5sGSKuXNsmmo5VWAY-17" value="Collect" style="outlineConnect=0;dashed=0;verticalLabelPosition=bottom;verticalAlign=top;align=center;html=1;shape=mxgraph.aws3.lambda_function;fillColor=#F58534;gradientColor=#2E73B8;fontSize=16;" parent="1" vertex="1">
          <mxGeometry x="130" y="770" width="76.67" height="80" as="geometry" />
        </mxCell>
        <mxCell id="fDH5sGSKuXNsmmo5VWAY-49" style="edgeStyle=orthogonalEdgeStyle;rounded=0;orthogonalLoop=1;jettySize=auto;html=1;strokeWidth=1;fontSize=16;startArrow=none;startFill=1;endArrow=none;endFill=0;" parent="1" source="fDH5sGSKuXNsmmo5VWAY-62" edge="1">
          <mxGeometry relative="1" as="geometry">
            <mxPoint x="720" y="780" as="targetPoint" />
          </mxGeometry>
        </mxCell>
        <mxCell id="fDH5sGSKuXNsmmo5VWAY-71" style="edgeStyle=orthogonalEdgeStyle;rounded=0;orthogonalLoop=1;jettySize=auto;html=1;strokeWidth=1;fontSize=16;startArrow=none;startFill=0;endArrow=classic;endFill=1;" parent="1" source="fDH5sGSKuXNsmmo5VWAY-18" target="fDH5sGSKuXNsmmo5VWAY-70" edge="1">
          <mxGeometry relative="1" as="geometry" />
        </mxCell>
        <mxCell id="fDH5sGSKuXNsmmo5VWAY-18" value="Merge" style="outlineConnect=0;dashed=0;verticalLabelPosition=bottom;verticalAlign=top;align=center;html=1;shape=mxgraph.aws3.lambda_function;fillColor=#F58534;gradientColor=#2E73B8;fontSize=16;" parent="1" vertex="1">
          <mxGeometry x="800" y="770" width="76.67" height="80" as="geometry" />
        </mxCell>
        <mxCell id="fDH5sGSKuXNsmmo5VWAY-34" style="edgeStyle=orthogonalEdgeStyle;rounded=0;orthogonalLoop=1;jettySize=auto;html=1;fontSize=16;" parent="1" edge="1">
          <mxGeometry relative="1" as="geometry">
            <mxPoint x="516.6700000000001" y="699.9999999999998" as="sourcePoint" />
          </mxGeometry>
        </mxCell>
        <mxCell id="fDH5sGSKuXNsmmo5VWAY-36" style="edgeStyle=orthogonalEdgeStyle;rounded=0;orthogonalLoop=1;jettySize=auto;html=1;fontSize=16;" parent="1" edge="1">
          <mxGeometry relative="1" as="geometry">
            <mxPoint x="440" y="699.9999999999998" as="targetPoint" />
          </mxGeometry>
        </mxCell>
        <mxCell id="fDH5sGSKuXNsmmo5VWAY-46" value="" style="endArrow=none;html=1;rounded=0;fontSize=16;strokeWidth=10;" parent="1" edge="1">
          <mxGeometry width="50" height="50" relative="1" as="geometry">
            <mxPoint x="240" y="730" as="sourcePoint" />
            <mxPoint x="240" y="730" as="targetPoint" />
            <Array as="points">
              <mxPoint x="240" y="890" />
              <mxPoint x="240" y="740" />
            </Array>
          </mxGeometry>
        </mxCell>
        <mxCell id="fDH5sGSKuXNsmmo5VWAY-47" value="" style="endArrow=none;html=1;rounded=0;fontSize=16;strokeWidth=10;" parent="1" edge="1">
          <mxGeometry width="50" height="50" relative="1" as="geometry">
            <mxPoint x="720" y="730" as="sourcePoint" />
            <mxPoint x="720" y="890" as="targetPoint" />
          </mxGeometry>
        </mxCell>
        <mxCell id="fDH5sGSKuXNsmmo5VWAY-63" value="" style="edgeStyle=orthogonalEdgeStyle;rounded=0;orthogonalLoop=1;jettySize=auto;html=1;strokeWidth=1;fontSize=16;startArrow=classic;startFill=1;endArrow=none;endFill=0;" parent="1" source="fDH5sGSKuXNsmmo5VWAY-18" target="fDH5sGSKuXNsmmo5VWAY-62" edge="1">
          <mxGeometry relative="1" as="geometry">
            <mxPoint x="720" y="810" as="targetPoint" />
            <mxPoint x="800" y="810" as="sourcePoint" />
          </mxGeometry>
        </mxCell>
        <mxCell id="fDH5sGSKuXNsmmo5VWAY-62" value="" style="outlineConnect=0;dashed=0;verticalLabelPosition=bottom;verticalAlign=top;align=center;html=1;shape=mxgraph.aws3.bucket;fillColor=#F58534;gradientColor=#2E73B8;dashPattern=8 8;fontSize=16;" parent="1" vertex="1">
          <mxGeometry x="740" y="794.25" width="30.73" height="31.5" as="geometry" />
        </mxCell>
        <mxCell id="fDH5sGSKuXNsmmo5VWAY-69" style="edgeStyle=orthogonalEdgeStyle;rounded=0;orthogonalLoop=1;jettySize=auto;html=1;strokeWidth=1;fontSize=16;startArrow=none;startFill=0;endArrow=classic;endFill=1;" parent="1" source="fDH5sGSKuXNsmmo5VWAY-68" target="fDH5sGSKuXNsmmo5VWAY-17" edge="1">
          <mxGeometry relative="1" as="geometry" />
        </mxCell>
        <mxCell id="fDH5sGSKuXNsmmo5VWAY-68" value="" style="outlineConnect=0;dashed=0;verticalLabelPosition=bottom;verticalAlign=top;align=center;html=1;shape=mxgraph.aws3.bucket;fillColor=#F58534;gradientColor=#2E73B8;dashPattern=8 8;fontSize=16;" parent="1" vertex="1">
          <mxGeometry x="80" y="794.25" width="30.73" height="31.5" as="geometry" />
        </mxCell>
        <mxCell id="fDH5sGSKuXNsmmo5VWAY-70" value="" style="outlineConnect=0;dashed=0;verticalLabelPosition=bottom;verticalAlign=top;align=center;html=1;shape=mxgraph.aws3.bucket;fillColor=#F58534;gradientColor=#2E73B8;dashPattern=8 8;fontSize=16;" parent="1" vertex="1">
          <mxGeometry x="900" y="794.25" width="30.73" height="31.5" as="geometry" />
        </mxCell>
        <mxCell id="8iswP5mnMAEPi18pPPZu-5" value="Parallel For" style="text;html=1;strokeColor=none;fillColor=none;align=center;verticalAlign=middle;whiteSpace=wrap;rounded=0;fontSize=16;fontStyle=1" parent="1" vertex="1">
          <mxGeometry x="239.99" y="580" width="480" height="40" as="geometry" />
        </mxCell>
        <mxCell id="2zAOHkta_ptsl9l5DQPk-15" value="Transcribe" style="text;html=1;strokeColor=none;fillColor=none;align=center;verticalAlign=middle;whiteSpace=wrap;rounded=0;fontSize=16;" parent="1" vertex="1">
          <mxGeometry x="290" y="645.75" width="60" height="30" as="geometry" />
        </mxCell>
        <mxCell id="2zAOHkta_ptsl9l5DQPk-16" value="Translate" style="text;html=1;strokeColor=none;fillColor=none;align=center;verticalAlign=middle;whiteSpace=wrap;rounded=0;fontSize=16;" parent="1" vertex="1">
          <mxGeometry x="450.01" y="645.75" width="60" height="30" as="geometry" />
        </mxCell>
        <mxCell id="2zAOHkta_ptsl9l5DQPk-17" value="Synthesize" style="text;html=1;strokeColor=none;fillColor=none;align=center;verticalAlign=middle;whiteSpace=wrap;rounded=0;fontSize=16;" parent="1" vertex="1">
          <mxGeometry x="610.0099999999999" y="645.75" width="60" height="30" as="geometry" />
        </mxCell>
        <mxCell id="2zAOHkta_ptsl9l5DQPk-56" style="edgeStyle=orthogonalEdgeStyle;rounded=0;orthogonalLoop=1;jettySize=auto;html=1;endArrow=none;endFill=0;startArrow=classic;startFill=1;" parent="1" source="2zAOHkta_ptsl9l5DQPk-18" edge="1">
          <mxGeometry relative="1" as="geometry">
            <mxPoint x="240" y="809.9999999999998" as="targetPoint" />
            <Array as="points">
              <mxPoint x="260" y="716" />
              <mxPoint x="260" y="810" />
            </Array>
          </mxGeometry>
        </mxCell>
        <mxCell id="2zAOHkta_ptsl9l5DQPk-72" style="edgeStyle=orthogonalEdgeStyle;rounded=0;orthogonalLoop=1;jettySize=auto;html=1;startArrow=none;startFill=0;endArrow=classic;endFill=1;" parent="1" source="2zAOHkta_ptsl9l5DQPk-18" target="2zAOHkta_ptsl9l5DQPk-19" edge="1">
          <mxGeometry relative="1" as="geometry" />
        </mxCell>
        <mxCell id="2zAOHkta_ptsl9l5DQPk-18" value="" style="outlineConnect=0;dashed=0;verticalLabelPosition=bottom;verticalAlign=top;align=center;html=1;shape=mxgraph.aws3.lambda_function;fillColor=#F58534;fontSize=16;strokeColor=#6c8ebf;" parent="1" vertex="1">
          <mxGeometry x="281.67" y="675.75" width="76.67" height="80" as="geometry" />
        </mxCell>
        <mxCell id="2zAOHkta_ptsl9l5DQPk-73" style="edgeStyle=orthogonalEdgeStyle;rounded=0;orthogonalLoop=1;jettySize=auto;html=1;startArrow=none;startFill=0;endArrow=classic;endFill=1;" parent="1" source="2zAOHkta_ptsl9l5DQPk-19" target="2zAOHkta_ptsl9l5DQPk-20" edge="1">
          <mxGeometry relative="1" as="geometry" />
        </mxCell>
        <mxCell id="2zAOHkta_ptsl9l5DQPk-19" value="" style="outlineConnect=0;dashed=0;verticalLabelPosition=bottom;verticalAlign=top;align=center;html=1;shape=mxgraph.aws3.lambda_function;fillColor=#F58534;fontSize=16;strokeColor=#6c8ebf;" parent="1" vertex="1">
          <mxGeometry x="441.67" y="675.75" width="76.67" height="80" as="geometry" />
        </mxCell>
        <mxCell id="2zAOHkta_ptsl9l5DQPk-59" style="edgeStyle=orthogonalEdgeStyle;rounded=0;orthogonalLoop=1;jettySize=auto;html=1;startArrow=none;startFill=0;endArrow=classic;endFill=1;" parent="1" source="2zAOHkta_ptsl9l5DQPk-20" edge="1">
          <mxGeometry relative="1" as="geometry">
            <mxPoint x="720" y="809.9999999999998" as="targetPoint" />
            <Array as="points">
              <mxPoint x="700" y="716" />
              <mxPoint x="700" y="810" />
            </Array>
          </mxGeometry>
        </mxCell>
        <mxCell id="2zAOHkta_ptsl9l5DQPk-20" value="" style="outlineConnect=0;dashed=0;verticalLabelPosition=bottom;verticalAlign=top;align=center;html=1;shape=mxgraph.aws3.lambda_function;fillColor=#F58534;fontSize=16;strokeColor=#6c8ebf;" parent="1" vertex="1">
          <mxGeometry x="601.67" y="675.75" width="76.67" height="80" as="geometry" />
        </mxCell>
        <mxCell id="2zAOHkta_ptsl9l5DQPk-21" value="" style="outlineConnect=0;dashed=0;verticalLabelPosition=bottom;verticalAlign=top;align=center;html=1;shape=mxgraph.aws3.bucket;fillColor=#F58534;gradientColor=none;dashPattern=8 8;fontSize=16;" parent="1" vertex="1">
          <mxGeometry x="541.67" y="700" width="30.73" height="31.5" as="geometry" />
        </mxCell>
        <mxCell id="2zAOHkta_ptsl9l5DQPk-22" value="" style="outlineConnect=0;dashed=0;verticalLabelPosition=bottom;verticalAlign=top;align=center;html=1;shape=mxgraph.aws3.bucket;fillColor=#F58534;gradientColor=none;dashPattern=8 8;fontSize=16;" parent="1" vertex="1">
          <mxGeometry x="381.67" y="700" width="30.73" height="31.5" as="geometry" />
        </mxCell>
        <mxCell id="2zAOHkta_ptsl9l5DQPk-23" value="" style="sketch=0;points=[[0,0,0],[0.25,0,0],[0.5,0,0],[0.75,0,0],[1,0,0],[0,1,0],[0.25,1,0],[0.5,1,0],[0.75,1,0],[1,1,0],[0,0.25,0],[0,0.5,0],[0,0.75,0],[1,0.25,0],[1,0.5,0],[1,0.75,0]];outlineConnect=0;fontColor=#232F3E;gradientColor=#F58534;gradientDirection=north;fillColor=#F58534;strokeColor=#ffffff;dashed=0;verticalLabelPosition=bottom;verticalAlign=top;align=center;html=1;fontSize=16;fontStyle=0;aspect=fixed;shape=mxgraph.aws4.resourceIcon;resIcon=mxgraph.aws4.textract;" parent="1" vertex="1">
          <mxGeometry x="303.50000000000006" y="760.5" width="33" height="33" as="geometry" />
        </mxCell>
        <mxCell id="2zAOHkta_ptsl9l5DQPk-24" value="" style="sketch=0;points=[[0,0,0],[0.25,0,0],[0.5,0,0],[0.75,0,0],[1,0,0],[0,1,0],[0.25,1,0],[0.5,1,0],[0.75,1,0],[1,1,0],[0,0.25,0],[0,0.5,0],[0,0.75,0],[1,0.25,0],[1,0.5,0],[1,0.75,0]];outlineConnect=0;fontColor=#232F3E;gradientColor=#F58534;gradientDirection=north;fillColor=#F58534;strokeColor=#ffffff;dashed=0;verticalLabelPosition=bottom;verticalAlign=top;align=center;html=1;fontSize=16;fontStyle=0;aspect=fixed;shape=mxgraph.aws4.resourceIcon;resIcon=mxgraph.aws4.translate;" parent="1" vertex="1">
          <mxGeometry x="465.01" y="762" width="30" height="30" as="geometry" />
        </mxCell>
        <mxCell id="2zAOHkta_ptsl9l5DQPk-25" value="" style="outlineConnect=0;dashed=0;verticalLabelPosition=bottom;verticalAlign=top;align=center;html=1;shape=mxgraph.aws3.polly;fillColor=#F58534;gradientColor=#F58534;fontSize=16;" parent="1" vertex="1">
          <mxGeometry x="624.5799999999999" y="758.25" width="30.85" height="37.5" as="geometry" />
        </mxCell>
        <mxCell id="2zAOHkta_ptsl9l5DQPk-27" value="AWS" style="text;html=1;strokeColor=none;fillColor=none;align=center;verticalAlign=middle;whiteSpace=wrap;rounded=0;fontSize=16;dashed=1;dashPattern=8 8;fontStyle=1" parent="1" vertex="1">
          <mxGeometry x="270.01" y="620" width="420" height="30" as="geometry" />
        </mxCell>
        <mxCell id="2zAOHkta_ptsl9l5DQPk-28" value="Transcribe" style="text;html=1;strokeColor=none;fillColor=none;align=center;verticalAlign=middle;whiteSpace=wrap;rounded=0;fontSize=16;" parent="1" vertex="1">
          <mxGeometry x="290.01" y="842.75" width="60" height="30" as="geometry" />
        </mxCell>
        <mxCell id="2zAOHkta_ptsl9l5DQPk-29" value="Translate" style="text;html=1;strokeColor=none;fillColor=none;align=center;verticalAlign=middle;whiteSpace=wrap;rounded=0;fontSize=16;" parent="1" vertex="1">
          <mxGeometry x="450.02" y="842.75" width="60" height="30" as="geometry" />
        </mxCell>
        <mxCell id="2zAOHkta_ptsl9l5DQPk-30" value="Synthesize" style="text;html=1;strokeColor=none;fillColor=none;align=center;verticalAlign=middle;whiteSpace=wrap;rounded=0;fontSize=16;" parent="1" vertex="1">
          <mxGeometry x="610.0199999999999" y="842.75" width="60" height="30" as="geometry" />
        </mxCell>
        <mxCell id="2zAOHkta_ptsl9l5DQPk-55" style="edgeStyle=orthogonalEdgeStyle;rounded=0;orthogonalLoop=1;jettySize=auto;html=1;endArrow=none;endFill=0;startArrow=classic;startFill=1;" parent="1" source="2zAOHkta_ptsl9l5DQPk-31" edge="1">
          <mxGeometry relative="1" as="geometry">
            <mxPoint x="240" y="819.9999999999998" as="targetPoint" />
            <Array as="points">
              <mxPoint x="260" y="913" />
              <mxPoint x="260" y="810" />
              <mxPoint x="240" y="810" />
            </Array>
          </mxGeometry>
        </mxCell>
        <mxCell id="2zAOHkta_ptsl9l5DQPk-68" style="edgeStyle=orthogonalEdgeStyle;rounded=0;orthogonalLoop=1;jettySize=auto;html=1;startArrow=none;startFill=0;endArrow=classic;endFill=1;" parent="1" source="2zAOHkta_ptsl9l5DQPk-31" target="2zAOHkta_ptsl9l5DQPk-32" edge="1">
          <mxGeometry relative="1" as="geometry" />
        </mxCell>
        <mxCell id="2zAOHkta_ptsl9l5DQPk-31" value="" style="outlineConnect=0;dashed=0;verticalLabelPosition=bottom;verticalAlign=top;align=center;html=1;shape=mxgraph.aws3.lambda_function;fillColor=#2E73B8;fontSize=16;strokeColor=#6c8ebf;" parent="1" vertex="1">
          <mxGeometry x="281.68" y="872.75" width="76.67" height="80" as="geometry" />
        </mxCell>
        <mxCell id="2zAOHkta_ptsl9l5DQPk-69" style="edgeStyle=orthogonalEdgeStyle;rounded=0;orthogonalLoop=1;jettySize=auto;html=1;startArrow=none;startFill=0;endArrow=classic;endFill=1;" parent="1" source="2zAOHkta_ptsl9l5DQPk-32" target="2zAOHkta_ptsl9l5DQPk-33" edge="1">
          <mxGeometry relative="1" as="geometry" />
        </mxCell>
        <mxCell id="2zAOHkta_ptsl9l5DQPk-32" value="" style="outlineConnect=0;dashed=0;verticalLabelPosition=bottom;verticalAlign=top;align=center;html=1;shape=mxgraph.aws3.lambda_function;fillColor=#2E73B8;fontSize=16;strokeColor=#6c8ebf;" parent="1" vertex="1">
          <mxGeometry x="441.68" y="872.75" width="76.67" height="80" as="geometry" />
        </mxCell>
        <mxCell id="2zAOHkta_ptsl9l5DQPk-60" style="edgeStyle=orthogonalEdgeStyle;rounded=0;orthogonalLoop=1;jettySize=auto;html=1;startArrow=none;startFill=0;endArrow=classic;endFill=1;" parent="1" source="2zAOHkta_ptsl9l5DQPk-33" edge="1">
          <mxGeometry relative="1" as="geometry">
            <mxPoint x="720" y="809.9999999999998" as="targetPoint" />
            <Array as="points">
              <mxPoint x="700" y="913" />
              <mxPoint x="700" y="810" />
            </Array>
          </mxGeometry>
        </mxCell>
        <mxCell id="2zAOHkta_ptsl9l5DQPk-33" value="" style="outlineConnect=0;dashed=0;verticalLabelPosition=bottom;verticalAlign=top;align=center;html=1;shape=mxgraph.aws3.lambda_function;fillColor=#2E73B8;fontSize=16;strokeColor=#6c8ebf;" parent="1" vertex="1">
          <mxGeometry x="601.68" y="872.75" width="76.67" height="80" as="geometry" />
        </mxCell>
        <mxCell id="2zAOHkta_ptsl9l5DQPk-34" value="" style="outlineConnect=0;dashed=0;verticalLabelPosition=bottom;verticalAlign=top;align=center;html=1;shape=mxgraph.aws3.bucket;fillColor=#2E73B8;gradientColor=none;dashPattern=8 8;fontSize=16;" parent="1" vertex="1">
          <mxGeometry x="541.68" y="897" width="30.73" height="31.5" as="geometry" />
        </mxCell>
        <mxCell id="2zAOHkta_ptsl9l5DQPk-35" value="" style="outlineConnect=0;dashed=0;verticalLabelPosition=bottom;verticalAlign=top;align=center;html=1;shape=mxgraph.aws3.bucket;fillColor=#2E73B8;gradientColor=none;dashPattern=8 8;fontSize=16;" parent="1" vertex="1">
          <mxGeometry x="381.68" y="897" width="30.73" height="31.5" as="geometry" />
        </mxCell>
        <mxCell id="2zAOHkta_ptsl9l5DQPk-40" value="GCP" style="text;html=1;strokeColor=none;fillColor=none;align=center;verticalAlign=middle;whiteSpace=wrap;rounded=0;fontSize=16;dashed=1;dashPattern=8 8;fontStyle=1" parent="1" vertex="1">
          <mxGeometry x="270.02" y="817" width="420" height="30" as="geometry" />
        </mxCell>
        <mxCell id="2zAOHkta_ptsl9l5DQPk-62" value="" style="dashed=0;outlineConnect=0;html=1;align=center;labelPosition=center;verticalLabelPosition=bottom;verticalAlign=top;shape=mxgraph.webicons.translate;gradientColor=#2E73B8;fontSize=16;fillColor=#2E73B8;" parent="1" vertex="1">
          <mxGeometry x="464.99000000000007" y="957.75" width="30" height="30" as="geometry" />
        </mxCell>
        <mxCell id="2zAOHkta_ptsl9l5DQPk-63" value="" style="editableCssRules=.*;shape=image;verticalLabelPosition=bottom;labelBackgroundColor=#ffffff;verticalAlign=top;aspect=fixed;imageAspect=0;image=data:image/svg+xml,PHN2ZyB4bWxucz0iaHR0cDovL3d3dy53My5vcmcvMjAwMC9zdmciIHhtbG5zOnY9Imh0dHBzOi8vdmVjdGEuaW8vbmFubyIgd2lkdGg9IjIwLjAwMDQ2MzQ4NTcxNzc3MyIgaGVpZ2h0PSIxNi42MzE1MTU1MDI5Mjk2ODgiIHZpZXdCb3g9IjAgMC4wMDAyNDE0MDk2NTI1MTcxNzcxNiAyMC4wMDA0NjM0ODU3MTc3NzMgMTYuNjMxNTE1NTAyOTI5Njg4Ij4mI3hhOwk8c3R5bGUgdHlwZT0idGV4dC9jc3MiPi5zdDAgeyBmaWxsOiByZ2IoNDYsIDExNSwgMTg0KTsgfSAuc3QxIHsgZmlsbDogcmdiKDQ2LCAxMTUsIDE4NCk7IH0gPC9zdHlsZT4mI3hhOwk8cGF0aCBjbGFzcz0ic3QwIiBkPSJNLjAxIDMuMzA2aDYuNjR2MS42N0guMDF6bS0uMDEgMTBoMCA5LjE3di0xLjY3SDB6bTAtNC4xN2g0LjE4SDEwbC0xLjY3LTEuNjZIMi41MSAweiIvPiYjeGE7CTxwYXRoIGNsYXNzPSJzdDEiIGQ9Ik0xMCA1LjM4NmEuNDIuNDIgMCAwIDEgLjQyLS4zNi40MS40MSAwIDAgMSAuNDEuMzZ2OS4xOGEyLjA5IDIuMDkgMCAwIDAgMi42MSAyIDIuMTYgMi4xNiAwIDAgMCAxLjU2LTIuMTFWMi4wNjZhLjQuNCAwIDAgMSAuMTktLjQuNDEuNDEgMCAwIDEgLjQ1IDAgLjQuNCAwIDAgMSAuMTkuNHY5LjE2YTIuMDcgMi4wNyAwIDAgMCAuODEgMS42NCAyIDIgMCAwIDAgMS44LjM3IDIuMTYgMi4xNiAwIDAgMCAxLjU2LTIuMTJ2LTIuOGgtMS42N3YyLjkyYS40LjQgMCAwIDEtLjE5LjQuNDEuNDEgMCAwIDEtLjQ1IDAgLjQuNCAwIDAgMS0uMTktLjR2LTkuMTdhMi4wOSAyLjA5IDAgMCAwLTIuNjEtMiAyLjE2IDIuMTYgMCAwIDAtMS41NiAyLjEzdjEyLjM3YS40LjQgMCAwIDEtLjE5LjQuNDEuNDEgMCAwIDEtLjQ1IDAgLjQuNCAwIDAgMS0uMTktLjR2LTkuMTdhMi4wNyAyLjA3IDAgMCAwLTQuMTEtLjM2IDIuNCAyLjQgMCAwIDAtLjA1LjQ2djJMMTAgOS4xMzZ6Ii8+JiN4YTs8L3N2Zz4=;fontSize=16;" parent="1" vertex="1">
          <mxGeometry x="620.13" y="957.75" width="35.29" height="30" as="geometry" />
        </mxCell>
        <mxCell id="2zAOHkta_ptsl9l5DQPk-64" value="" style="editableCssRules=.*;shape=image;verticalLabelPosition=bottom;labelBackgroundColor=#ffffff;verticalAlign=top;aspect=fixed;imageAspect=0;image=data:image/svg+xml,PHN2ZyB4bWxucz0iaHR0cDovL3d3dy53My5vcmcvMjAwMC9zdmciIHhtbG5zOnY9Imh0dHBzOi8vdmVjdGEuaW8vbmFubyIgd2lkdGg9IjIwIiBoZWlnaHQ9IjE2IiB2aWV3Qm94PSIwIDAgMjAgMTYiPiYjeGE7CTxzdHlsZSB0eXBlPSJ0ZXh0L2NzcyI+LnN0MCB7IGZpbGw6IHJnYig0NiwgMTE1LCAxODQpOyB9IC5zdDEgeyBmaWxsOiByZ2IoNDYsIDExNSwgMTg0KTsgfSAuc3QyIHsgZmlsbDogcmdiKDY2LCAxMzMsIDI0NCk7IH0gPC9zdHlsZT4mI3hhOwk8ZyBjbGFzcz0ic3QwIj4mI3hhOwkJPHBhdGggZD0iTTEwIDE2TDAgOGg0bDYgNC45OXoiLz4mI3hhOwkJPHBhdGggZD0iTTIwIDhsLTEwIDh2LTMuMDFMMTYgOHoiLz4mI3hhOwk8L2c+JiN4YTsJPGcgY2xhc3M9InN0MSI+JiN4YTsJCTxwYXRoIGQ9Ik0xMCAzLjAxTDQgOEgwbDEwLTh6Ii8+JiN4YTsJCTxwYXRoIGQ9Ik0yMCA4TDEwIDB2My4wMUwxNiA4eiIvPiYjeGE7CTwvZz4mI3hhOwk8Y2lyY2xlIGNsYXNzPSJzdDIiIGN4PSIxMCIgY3k9IjgiIHI9IjIiLz4mI3hhOzwvc3ZnPg==;fontSize=16;fillColor=#2E73B8;" parent="1" vertex="1">
          <mxGeometry x="296.55" y="956.75" width="46.88" height="37.5" as="geometry" />
        </mxCell>
      </root>
    </mxGraphModel>
  </diagram>
</mxfile>
